<svg width="48" height="48" viewBox="0 0 48 48" fill="none" xmlns="http://www.w3.org/2000/svg">
<path d="M6.9137 36.0137C5.44605 36.0137 4.25195 37.2081 4.25195 38.6764C4.25195 40.1446 5.44595 41.339 6.9137 41.339C8.38145 41.339 9.57555 40.1446 9.57555 38.6764C9.57555 37.2081 8.38136 36.0137 6.9137 36.0137ZM6.9137 39.9328C6.22145 39.9328 5.6582 39.3691 5.6582 38.6764C5.6582 37.9836 6.22145 37.4199 6.9137 37.4199C7.60605 37.4199 8.1693 37.9836 8.1693 38.6764C8.1693 39.3691 7.60605 39.9328 6.9137 39.9328Z" fill="#667085"/>
<path d="M36.529 41.339C37.9967 41.339 39.1908 40.1446 39.1908 38.6764C39.1908 37.2081 37.9968 36.0137 36.529 36.0137C35.0613 36.0137 33.8672 37.2081 33.8672 38.6764C33.8672 40.1445 35.0613 41.339 36.529 41.339ZM36.529 37.4198C37.2213 37.4198 37.7845 37.9835 37.7845 38.6763C37.7845 39.369 37.2213 39.9327 36.529 39.9327C35.8367 39.9327 35.2734 39.369 35.2734 38.6763C35.2734 37.9835 35.8367 37.4198 36.529 37.4198Z" fill="#667085"/>
<path d="M9.99438 37.0395C9.86191 37.2194 9.82282 37.4517 9.8891 37.6651C9.99026 37.9912 10.0416 38.3313 10.0416 38.6764C10.0416 39.0214 9.99026 39.3617 9.88901 39.6878C9.82282 39.9012 9.86191 40.1334 9.99448 40.3133C10.1269 40.4932 10.337 40.5994 10.5605 40.5994H32.8815C33.105 40.5994 33.3151 40.4932 33.4475 40.3133C33.5801 40.1334 33.6192 39.9012 33.553 39.6878C33.4518 39.3616 33.4004 39.0214 33.4004 38.6764C33.4004 38.3313 33.4518 37.9911 33.553 37.6651C33.6192 37.4518 33.5801 37.2194 33.4476 37.0395C33.3151 36.8596 33.105 36.7534 32.8815 36.7534H10.5605C10.3372 36.7534 10.1269 36.8596 9.99438 37.0395ZM11.4205 38.1597H32.0218C32.0035 38.3308 31.9942 38.5032 31.9942 38.6764C31.9942 38.8497 32.0035 39.0221 32.0218 39.1932H11.4204C11.4387 39.0221 11.448 38.8497 11.448 38.6764C11.448 38.5032 11.4388 38.3308 11.4205 38.1597Z" fill="#667085"/>
<path d="M18.8008 26.459C18.4124 26.459 18.0977 26.7737 18.0977 27.1621C18.0977 27.5505 18.4124 27.8652 18.8008 27.8652H20.4371C20.8255 27.8652 21.1402 27.5505 21.1402 27.1621C21.1402 26.7737 20.8255 26.459 20.4371 26.459H18.8008Z" fill="#667085"/>
<path d="M4.00148 28.9696C4.26173 28.9696 4.51195 28.8243 4.63382 28.5748L6.29386 25.1754C6.4642 24.8265 6.31945 24.4054 5.9706 24.2351C5.62157 24.0646 5.20054 24.2095 5.03029 24.5583L3.37026 27.9577C3.19992 28.3067 3.34467 28.7277 3.69351 28.898C3.79279 28.9466 3.89789 28.9696 4.00148 28.9696Z" fill="#667085"/>
<path d="M7.32767 28.9696C7.58792 28.9696 7.83814 28.8245 7.96001 28.5748L9.62014 25.1754C9.79048 24.8265 9.64583 24.4054 9.29689 24.2351C8.94776 24.0646 8.52682 24.2094 8.35657 24.5584L6.69645 27.9577C6.52611 28.3067 6.67076 28.7277 7.0197 28.898C7.11907 28.9466 7.22417 28.9696 7.32767 28.9696Z" fill="#667085"/>
<path d="M10.6519 28.9696C10.9121 28.9696 11.1624 28.8245 11.2842 28.5748L12.9444 25.1754C13.1147 24.8265 12.97 24.4054 12.6211 24.2351C12.2721 24.0646 11.8511 24.2094 11.6808 24.5584L10.0207 27.9577C9.85032 28.3067 9.99498 28.7277 10.3439 28.898C10.4432 28.9466 10.5483 28.9696 10.6519 28.9696Z" fill="#667085"/>
<path d="M47.7431 24.9638L46.0107 20.9511C46.0018 20.9304 45.9919 20.9104 45.9811 20.8908L43.0168 13.809C42.8669 13.4508 42.4547 13.2819 42.0968 13.4319C41.7386 13.5818 41.5698 13.9938 41.7198 14.3519L44.4446 20.8616L43.5134 21.2641L37.2863 9.30862L37.2863 9.30853L37.1485 9.04397L36.3246 7.46184C36.3238 7.46034 36.3233 7.45875 36.3225 7.45725C36.3029 7.41928 36.2857 7.38066 36.2706 7.34156C36.2656 7.32862 36.2618 7.31541 36.2573 7.30237C36.2474 7.27378 36.2379 7.24509 36.2303 7.21594C36.2268 7.20216 36.2241 7.18828 36.221 7.17441C36.2143 7.14441 36.2085 7.11431 36.2043 7.08384C36.2026 7.07184 36.2013 7.05984 36.2001 7.04775C36.1965 7.014 36.1943 6.97997 36.1938 6.94575C36.1914 6.80531 36.2137 6.66394 36.2637 6.52669C36.3769 6.21684 36.6071 5.97712 36.912 5.85159C37.4995 5.60981 38.1774 5.89022 38.423 6.47662L40.6237 11.734C40.7737 12.0923 41.186 12.2612 41.5436 12.1111C41.9018 11.9612 42.0707 11.5492 41.9207 11.1911L39.72 5.93362C39.177 4.63631 37.6772 4.01606 36.3768 4.55119C35.7119 4.82466 35.1893 5.36897 34.9426 6.04434C34.8953 6.17362 34.8592 6.30591 34.8336 6.4395L24.1413 10.8387C23.959 10.8129 23.7731 10.7987 23.5838 10.7987H20.7377C19.7326 10.7987 18.9149 11.6167 18.9149 12.622V15.6423H17.0271C16.1305 15.6423 15.4011 16.3718 15.4011 17.2687V21.2623C15.4011 21.3837 15.3024 21.4825 15.1813 21.4825H1.626C0.729375 21.4826 0 22.2122 0 23.109V24.8149C0 25.2033 0.314719 25.518 0.703125 25.518C1.09153 25.518 1.40625 25.2033 1.40625 24.8149V23.109C1.40625 22.9876 1.50487 22.8888 1.626 22.8888H15.1814C16.0779 22.8888 16.8074 22.1592 16.8074 21.2623V17.2687C16.8074 17.1473 16.906 17.0485 17.0272 17.0485H19.6181H26.8375H27.3227C27.4254 17.0485 27.5172 17.1059 27.5624 17.1984L29.7001 21.5786C29.7611 21.704 29.7935 21.8437 29.7935 21.9831V30.5014C29.7935 30.6487 29.6738 30.7687 29.5267 30.7687H27.9285H14.7088H1.626C1.50487 30.7687 1.40625 30.6699 1.40625 30.5485V27.6479C1.40625 27.2595 1.09153 26.9448 0.703125 26.9448C0.314719 26.9448 0 27.2595 0 27.6479V30.5485C0 31.4453 0.729375 32.175 1.626 32.175H14.0058V33.7112H6.25331C3.51628 33.7112 1.28944 35.9379 1.28944 38.6771C1.28944 41.4142 3.51619 43.641 6.25331 43.641H37.1906C39.9277 43.641 42.1545 41.4142 42.1545 38.675C42.1545 35.938 39.9278 33.7112 37.1906 33.7112H28.6316V32.175H29.5267C30.4492 32.175 31.1997 31.4242 31.1997 30.5014V21.9831C31.1997 21.6313 31.1182 21.2782 30.9638 20.9619L28.8262 16.5817C28.5799 16.0769 28.0897 15.7308 27.5407 15.6573V15.2976L36.3671 10.5878L42.2188 21.8234L35.6183 24.6759C35.1714 24.8692 34.8914 25.2914 34.8874 25.7782C34.8833 26.2577 35.163 26.695 35.6 26.8926L41.955 29.7647C42.3633 29.9493 42.7975 30.0428 43.2457 30.0428C43.6757 30.0428 44.0939 29.9563 44.4888 29.7858L46.1086 29.0857C47.6951 28.4002 48.4283 26.551 47.7431 24.9638ZM15.412 32.1751H27.2254V33.7113H15.412V32.1751ZM37.1905 35.1176C39.1522 35.1176 40.7483 36.7134 40.7483 38.6773C40.7483 40.6389 39.1523 42.2349 37.1906 42.2349H6.25331C4.29169 42.2349 2.69569 40.639 2.69569 38.6752C2.69569 36.7135 4.29159 35.1176 6.25331 35.1176H14.7088H27.9284H37.1905ZM26.134 14.7571V14.8761V15.6426H20.3212V12.6222C20.3212 12.3922 20.5081 12.2051 20.7378 12.2051H23.5839C23.7575 12.2051 23.927 12.2227 24.0908 12.2559C24.1546 12.2688 24.217 12.2847 24.2788 12.3022C24.2932 12.3064 24.3077 12.3102 24.322 12.3145C24.3785 12.3316 24.4338 12.3508 24.4883 12.3715C24.5069 12.3786 24.5254 12.3859 24.5437 12.3934C24.5951 12.4144 24.6458 12.4366 24.6955 12.4608C24.7147 12.4701 24.7333 12.4801 24.7522 12.4898C24.793 12.5109 24.8332 12.5331 24.8726 12.5563C24.8954 12.5697 24.9179 12.5835 24.9402 12.5976C24.9786 12.6217 25.0162 12.647 25.053 12.6731C25.0698 12.685 25.0867 12.6966 25.1032 12.7088C25.1473 12.7417 25.1902 12.7763 25.2321 12.812C25.2464 12.8242 25.2607 12.8364 25.2746 12.8489C25.3178 12.8873 25.3599 12.927 25.4003 12.9682C25.4095 12.9776 25.4184 12.9873 25.4275 12.9968C25.4714 13.043 25.5143 13.0901 25.5546 13.1394C25.555 13.1401 25.5555 13.1407 25.5561 13.1413C25.6005 13.1957 25.6428 13.2519 25.6826 13.3099C25.6834 13.3109 25.6841 13.312 25.6849 13.3131C25.7246 13.3709 25.7619 13.4305 25.7969 13.4917C25.798 13.4936 25.7992 13.4955 25.8002 13.4974C25.9402 13.7435 26.0399 14.0142 26.0921 14.2997C26.0934 14.307 26.0948 14.3143 26.0961 14.3217C26.1075 14.3877 26.1164 14.4545 26.1227 14.5219C26.1235 14.5309 26.124 14.5399 26.1248 14.549C26.1304 14.6177 26.1339 14.687 26.1339 14.7569V14.7571H26.134ZM27.4162 13.7702C27.2779 13.233 27.0286 12.7403 26.6956 12.3164C26.6872 12.3058 26.6791 12.2952 26.6707 12.2846C26.6456 12.2534 26.6201 12.2227 26.5942 12.1924C26.5804 12.1761 26.5664 12.1599 26.5522 12.1439C26.5295 12.1181 26.5066 12.0924 26.4833 12.0672C26.4634 12.0457 26.443 12.0247 26.4227 12.0037C26.4034 11.9837 26.3842 11.9636 26.3644 11.944C26.3333 11.9131 26.3013 11.883 26.2691 11.8532C26.2589 11.8437 26.2491 11.834 26.2388 11.8246C26.1543 11.7478 26.0665 11.6744 25.9754 11.6049L34.9793 7.90031C34.9818 7.90631 34.9851 7.91203 34.9876 7.91803C35.015 7.98347 35.0443 8.04825 35.0773 8.11153L35.7175 9.34078L27.4162 13.7702ZM45.5507 27.7951L43.9309 28.4951C43.4865 28.687 42.9756 28.6829 42.5344 28.4836L36.5801 25.7926L43.4152 22.8388C43.4346 22.8323 43.4539 22.8255 43.473 22.8172L44.9988 22.1554L46.4521 25.5214C46.8301 26.3967 46.4257 27.4168 45.5507 27.7951Z" fill="#667085"/>
<path d="M27.6963 25.5222C28.1951 25.5222 28.6008 25.1162 28.6008 24.6175V22.1888C28.6008 22.0529 28.5694 21.9161 28.5091 21.792L26.884 18.4619C26.7334 18.1534 26.4143 17.9541 26.0711 17.9541H18.8889C18.3901 17.9541 17.9844 18.3599 17.9844 18.8587V22.1668C17.9844 22.4066 18.0822 22.6409 18.2532 22.8103L20.7334 25.2612C20.9037 25.4294 21.1296 25.5222 21.369 25.5222H27.6963ZM19.3906 21.9572V19.3603H25.7577L27.1946 22.3046V24.1158H21.5752L19.3906 21.9572Z" fill="#667085"/>
</svg>
