<svg width="48" height="48" viewBox="0 0 48 48" fill="none" xmlns="http://www.w3.org/2000/svg">
<g clip-path="url(#clip0_3140_11044)">
<path d="M27.9748 13.8005C27.155 10.9035 24.3432 8.93215 21.2962 9.21136C19.2265 9.40063 17.4988 10.5503 16.4869 12.1646C15.8732 13.1437 14.7282 13.6722 13.588 13.4867C12.8422 13.3649 12.0523 13.3527 11.2456 13.466C8.53782 13.8464 6.40065 15.5404 5.64453 17.6439" stroke="#667085" stroke-width="1.67" stroke-miterlimit="10" stroke-linecap="round" stroke-linejoin="round"/>
<path d="M41.704 25.4067L31.9785 27.5196" stroke="#667085" stroke-width="1.67" stroke-miterlimit="10" stroke-linecap="round" stroke-linejoin="round"/>
<path d="M33.873 15.5958C34.0661 15.5283 34.2647 15.4721 34.4699 15.4271L37.1402 14.8472" stroke="#667085" stroke-width="1.67" stroke-miterlimit="10" stroke-linecap="round" stroke-linejoin="round"/>
<path d="M46.7292 13.5158L46.3458 21.1836C46.2277 23.5513 44.2733 25.4111 41.9018 25.4111C39.5304 25.4111 37.576 23.5513 37.4579 21.1836L36.5077 2.19542C36.4675 1.39264 37.1075 0.719727 37.9113 0.719727H45.8915C46.6952 0.719727 47.3353 1.39255 47.2951 2.19533L46.8682 10.7331" stroke="#667085" stroke-width="1.67" stroke-miterlimit="10" stroke-linecap="round" stroke-linejoin="round"/>
<path d="M42.4441 22.4812C43.164 22.183 43.5059 21.3576 43.2077 20.6377C42.9095 19.9178 42.0841 19.5759 41.3641 19.8741C40.6442 20.1723 40.3023 20.9977 40.6005 21.7176C40.8987 22.4376 41.7241 22.7795 42.4441 22.4812Z" stroke="#667085" stroke-width="1.67" stroke-miterlimit="10" stroke-linecap="round" stroke-linejoin="round"/>
<path d="M26.2036 32.0727C20.5869 34.3825 14.1191 32.6277 10.4401 27.7957L4.51816 20.0181C3.9588 19.2834 4.24785 18.2181 5.10179 17.8668L7.30436 16.9611C8.93071 16.2923 10.7908 16.5462 12.1785 17.6264C13.5661 18.7067 15.4262 18.9606 17.0525 18.2917L30.1722 12.8965C31.419 12.3837 32.8456 12.9789 33.3583 14.2258L33.5027 14.577C36.3185 21.4238 33.0505 29.257 26.2036 32.0727Z" stroke="#667085" stroke-width="1.67" stroke-miterlimit="10" stroke-linecap="round" stroke-linejoin="round"/>
<path d="M15.1602 22.7681L15.5878 23.8079" stroke="#667085" stroke-width="1.67" stroke-miterlimit="10" stroke-linecap="round" stroke-linejoin="round"/>
<path d="M24.4704 21.1633C23.9486 19.8945 22.9803 20.1533 21.8465 20.6196C20.7126 21.0859 19.8423 21.5832 20.3641 22.852C20.8859 24.1208 22.2281 24.7714 23.3621 24.3051C24.496 23.8388 24.9922 22.4322 24.4704 21.1633Z" stroke="#667085" stroke-width="1.67" stroke-miterlimit="10" stroke-linecap="round" stroke-linejoin="round"/>
<path d="M28.1113 17.4419L28.539 18.4817" stroke="#667085" stroke-width="1.67" stroke-miterlimit="10" stroke-linecap="round" stroke-linejoin="round"/>
<path d="M17.2033 47.2802H41.6417C44.7469 47.2802 47.264 44.7626 47.2634 41.6575L47.2628 38.8146C47.3558 33.9608 43.3628 30.1804 38.4917 30.3544C34.3785 30.5013 30.6657 34.0584 30.3577 38.1626C30.3478 38.2955 30.3408 38.4278 30.337 38.5594C30.3006 39.7918 29.1467 40.6798 27.9415 40.4197C27.3546 40.293 26.7373 40.2254 26.1004 40.2254C24.0916 40.2254 22.279 40.8971 20.9943 41.9751C20.3294 42.5329 19.3708 42.5651 18.6517 42.0791C17.5856 41.3586 16.2555 40.9309 14.8129 40.9309C14.1625 40.9309 13.5351 41.018 12.9445 41.1798C12.0231 41.4321 11.0453 40.982 10.6476 40.1135C9.53328 37.6797 7.07577 35.9897 4.22342 35.9927C4.17338 35.9928 4.12354 35.993 4.07388 35.9933C2.21666 36.0068 0.716797 37.5121 0.716797 39.3693V41.6585C0.716797 44.7633 3.23372 47.2802 6.33848 47.2802H14.4167" stroke="#667085" stroke-width="1.67" stroke-miterlimit="10" stroke-linecap="round" stroke-linejoin="round"/>
<path d="M1.46866 24.0314L0.950719 24.7592C0.521878 25.3619 0.664013 26.1935 1.26947 26.6234L2.01547 27.1532C2.14823 27.2474 2.26263 27.3646 2.35333 27.499L2.44459 27.6343C2.98286 28.4321 4.16923 28.4321 4.7075 27.6343C4.85638 27.4136 4.93593 27.1542 4.93593 26.8889V25.728C4.93593 25.4372 4.84046 25.1543 4.66393 24.9217L3.83689 23.832C3.3404 23.1778 2.37263 23.1098 1.78751 23.6881L1.61951 23.8541C1.56414 23.9088 1.51364 23.9681 1.46866 24.0314Z" stroke="#667085" stroke-width="1.67" stroke-miterlimit="10" stroke-linecap="round" stroke-linejoin="round"/>
<path d="M6.28005 36.295L7.07459 35.5885C7.29102 35.3955 7.43906 35.136 7.49527 34.8492L7.75949 33.5066C7.91784 32.7008 7.32475 31.9335 6.50399 31.881L6.26787 31.866C6.19011 31.8604 6.11234 31.8623 6.03551 31.8707L5.14729 31.9681C4.41178 32.0487 3.88522 32.7083 3.96673 33.4457L4.06792 34.3555C4.08572 34.5176 4.07448 34.6806 4.03419 34.838L3.9939 34.9963C3.90302 35.3543 3.96205 35.7047 4.12414 35.9933" stroke="#667085" stroke-width="1.67" stroke-miterlimit="10" stroke-linecap="round" stroke-linejoin="round"/>
</g>
<defs>
<clipPath id="clip0_3140_11044">
<rect width="48" height="48" fill="white"/>
</clipPath>
</defs>
</svg>
