<svg width="48" height="48" viewBox="0 0 48 48" fill="none" xmlns="http://www.w3.org/2000/svg">
<g clip-path="url(#clip0_3140_8313)">
<path d="M36.1696 34.7461H32.9531V30.5039" stroke="#667085" stroke-width="1.67" stroke-miterlimit="10" stroke-linecap="round" stroke-linejoin="round"/>
<path d="M32.9531 17.6367H37.2038C38.6935 17.6367 40.0421 18.5187 40.6392 19.8836L42.3014 23.6827C42.4987 24.1339 42.8656 24.4892 43.3228 24.6721L46.1182 25.7903C46.8301 26.075 47.2969 26.7645 47.2969 27.5312V34.2773C47.2969 34.5362 47.0871 34.7461 46.8281 34.7461H44.6509" stroke="#667085" stroke-width="1.67" stroke-miterlimit="10" stroke-linecap="round" stroke-linejoin="round"/>
<path d="M35.2969 25.1367V20.0742H37.1798C37.7436 20.0742 38.2527 20.4108 38.4737 20.9294L40.2656 25.1367H35.2969Z" stroke="#667085" stroke-width="1.67" stroke-miterlimit="10" stroke-linecap="round" stroke-linejoin="round"/>
<path d="M5.90822 19.3242H0.703125V30.0352C0.703125 30.294 0.912937 30.5039 1.17187 30.5039H30.1406" stroke="#667085" stroke-width="1.67" stroke-miterlimit="10" stroke-linecap="round" stroke-linejoin="round"/>
<path d="M30.1406 19.3242H9.18945" stroke="#667085" stroke-width="1.67" stroke-miterlimit="10" stroke-linecap="round" stroke-linejoin="round"/>
<path d="M38.4863 30.9492H32.9551" stroke="#667085" stroke-width="1.67" stroke-miterlimit="10" stroke-linecap="round" stroke-linejoin="round"/>
<path d="M47.2969 30.9492H42.3301" stroke="#667085" stroke-width="1.67" stroke-miterlimit="10" stroke-linecap="round" stroke-linejoin="round"/>
<path d="M44.625 34.7217C44.625 32.3917 42.7362 30.5029 40.4062 30.5029C38.0763 30.5029 36.1875 32.3917 36.1875 34.7217C36.1875 37.0516 38.0763 38.9404 40.4062 38.9404C42.7362 38.9404 44.625 37.0516 44.625 34.7217Z" stroke="#667085" stroke-width="1.67" stroke-miterlimit="10" stroke-linecap="round" stroke-linejoin="round"/>
<path d="M41.8125 34.7217C41.8125 33.9451 41.1829 33.3154 40.4062 33.3154C39.6296 33.3154 39 33.9451 39 34.7217C39 35.4983 39.6296 36.1279 40.4062 36.1279C41.1829 36.1279 41.8125 35.4983 41.8125 34.7217Z" stroke="#667085" stroke-width="1.67" stroke-miterlimit="10" stroke-linecap="round" stroke-linejoin="round"/>
<path d="M13.5938 34.7217C13.5938 32.3917 11.705 30.5029 9.375 30.5029C7.04503 30.5029 5.15625 32.3917 5.15625 34.7217C5.15625 37.0516 7.04503 38.9404 9.375 38.9404C11.705 38.9404 13.5938 37.0516 13.5938 34.7217Z" stroke="#667085" stroke-width="1.67" stroke-miterlimit="10" stroke-linecap="round" stroke-linejoin="round"/>
<path d="M10.7812 34.7217C10.7812 33.9451 10.1516 33.3154 9.375 33.3154C8.59837 33.3154 7.96875 33.9451 7.96875 34.7217C7.96875 35.4983 8.59837 36.1279 9.375 36.1279C10.1516 36.1279 10.7812 35.4983 10.7812 34.7217Z" stroke="#667085" stroke-width="1.67" stroke-miterlimit="10" stroke-linecap="round" stroke-linejoin="round"/>
<path d="M24.8438 34.7217C24.8438 32.3917 22.955 30.5029 20.625 30.5029C18.295 30.5029 16.4062 32.3917 16.4062 34.7217C16.4062 37.0516 18.295 38.9404 20.625 38.9404C22.955 38.9404 24.8438 37.0516 24.8438 34.7217Z" stroke="#667085" stroke-width="1.67" stroke-miterlimit="10" stroke-linecap="round" stroke-linejoin="round"/>
<path d="M22.0312 34.7217C22.0312 33.9451 21.4016 33.3154 20.625 33.3154C19.8484 33.3154 19.2188 33.9451 19.2188 34.7217C19.2188 35.4983 19.8484 36.1279 20.625 36.1279C21.4016 36.1279 22.0312 35.4983 22.0312 34.7217Z" stroke="#667085" stroke-width="1.67" stroke-miterlimit="10" stroke-linecap="round" stroke-linejoin="round"/>
<path d="M28.1719 36.2236H32.4844C32.7433 36.2236 32.9531 36.0138 32.9531 35.7549V33.2236H28.1719C27.9129 33.2236 27.7031 33.4335 27.7031 33.6924V35.7549C27.7031 36.0138 27.9129 36.2236 28.1719 36.2236Z" stroke="#667085" stroke-width="1.67" stroke-miterlimit="10" stroke-linecap="round" stroke-linejoin="round"/>
<path d="M2.39062 30.5742V34.6992" stroke="#667085" stroke-width="1.67" stroke-miterlimit="10" stroke-linecap="round" stroke-linejoin="round"/>
<path d="M13.6406 34.793H16.3594" stroke="#667085" stroke-width="1.67" stroke-miterlimit="10" stroke-linecap="round" stroke-linejoin="round"/>
<path d="M24.8906 34.793H27.6094" stroke="#667085" stroke-width="1.67" stroke-miterlimit="10" stroke-linecap="round" stroke-linejoin="round"/>
<path d="M0.703125 23.5195H30.0469" stroke="#667085" stroke-width="1.67" stroke-miterlimit="10" stroke-linecap="round" stroke-linejoin="round"/>
<path d="M19.0684 27.7148H30.0461" stroke="#667085" stroke-width="1.67" stroke-miterlimit="10" stroke-linecap="round" stroke-linejoin="round"/>
<path d="M0.703125 27.7148H15.7879" stroke="#667085" stroke-width="1.67" stroke-miterlimit="10" stroke-linecap="round" stroke-linejoin="round"/>
<path d="M44.5781 30.9492V29.0742C44.5781 28.8154 44.7879 28.6055 45.0469 28.6055H47.2969" stroke="#667085" stroke-width="1.67" stroke-miterlimit="10" stroke-linecap="round" stroke-linejoin="round"/>
<path d="M32.9531 22.8281V12.5977H30.6094C30.3504 12.5977 30.1406 12.8076 30.1406 13.0664V30.5039H32.9531V26.1094" stroke="#667085" stroke-width="1.67" stroke-miterlimit="10" stroke-linecap="round" stroke-linejoin="round"/>
<path d="M32.9531 15.3164H36.8906C37.1496 15.3164 37.3594 15.1065 37.3594 14.8477V12.5977H32.9531" stroke="#667085" stroke-width="1.67" stroke-miterlimit="10" stroke-linecap="round" stroke-linejoin="round"/>
<path d="M37.3594 12.5977V11.0977" stroke="#667085" stroke-width="1.67" stroke-miterlimit="10" stroke-linecap="round" stroke-linejoin="round"/>
<path d="M0.703125 16.5352H30.0469" stroke="#667085" stroke-width="1.67" stroke-miterlimit="10" stroke-linecap="round" stroke-linejoin="round"/>
<path d="M0.703125 19.3477V14.5664" stroke="#667085" stroke-width="1.67" stroke-miterlimit="10" stroke-linecap="round" stroke-linejoin="round"/>
<path d="M20.1282 10.4855C18.6411 9.63037 17.1031 9.03524 15.7034 9.03524C10.7347 9.03524 4.03906 16.4834 4.03906 16.4834" stroke="#667085" stroke-width="1.67" stroke-miterlimit="10" stroke-linecap="round" stroke-linejoin="round"/>
<path d="M27.38 16.5352C27.38 16.5352 25.4179 14.3418 22.8301 12.3273" stroke="#667085" stroke-width="1.67" stroke-miterlimit="10" stroke-linecap="round" stroke-linejoin="round"/>
</g>
<defs>
<clipPath id="clip0_3140_8313">
<rect width="48" height="48" fill="white"/>
</clipPath>
</defs>
</svg>
