<svg width="48" height="48" viewBox="0 0 48 48" fill="none" xmlns="http://www.w3.org/2000/svg">
<g clip-path="url(#clip0_2939_10631)">
<path d="M47.9554 46.6523L40.6805 27.6201C40.5724 27.3386 40.302 27.1528 40.0004 27.153H31.4494C34.1008 22.5774 36.505 17.2298 36.505 12.8663C36.505 5.96019 30.9065 0.361816 24.0005 0.361816C17.0945 0.361816 11.4961 5.96029 11.4961 12.8664C11.4961 17.2299 13.8964 22.5775 16.5517 27.1531H7.99662C7.69544 27.1534 7.42548 27.339 7.31755 27.6201L0.04568 46.6523C-0.0945982 47.0315 0.0990345 47.4526 0.478236 47.593C0.557189 47.6223 0.640643 47.6376 0.724754 47.6385H47.2762C47.6816 47.6328 48.0055 47.2995 47.9998 46.8941C47.9988 46.8115 47.9837 46.7298 47.9554 46.6523ZM27.937 46.1833V40.2046C29.205 39.8947 30.3287 39.1603 31.1214 38.1234C33.0626 38.1242 34.996 37.8783 36.8751 37.3913H36.8871H36.8981C38.7363 36.9466 40.4441 36.0758 41.8837 34.8491L43.4688 38.9955C35.6769 39.7056 33.0166 44.5642 32.3405 46.1884L27.937 46.1833ZM12.3231 37.4952C13.6908 37.2148 15.0787 37.0438 16.4736 36.9842C16.5806 39.9176 22.6603 41.3787 26.4817 40.5526V46.1832H10.3638L12.3231 37.4952ZM23.4355 37.2192C23.6943 37.5312 24.157 37.5745 24.4692 37.3157C24.5043 37.2866 24.5366 37.2542 24.5657 37.2192C24.6867 37.0681 25.4958 36.066 26.6379 34.4969C32.8046 35.9551 29.8083 39.2664 23.9986 39.3065C18.1909 39.2625 15.1975 35.954 21.3592 34.4959C22.5044 36.0661 23.3135 37.0662 23.4355 37.2192ZM41.3165 33.3597C40.1843 34.5001 38.7756 35.3271 37.228 35.76L35.4279 28.6042H39.5003L41.3165 33.3597ZM33.9337 28.6072L35.8269 36.154C34.4177 36.4614 32.9816 36.6289 31.5395 36.6541C31.4704 35.114 29.9143 33.8448 27.56 33.2087C28.4851 31.8925 29.5352 30.3224 30.5843 28.6081L33.9337 28.6072ZM23.9986 1.81608C30.0981 1.82208 35.042 6.76379 35.0508 12.8634C35.0508 20.7113 26.3278 32.5567 24.0005 35.5791C21.6722 32.5657 12.9502 20.7183 12.9502 12.8634C12.9585 6.7651 17.9003 1.82377 23.9986 1.81608ZM20.4382 33.2097C18.9758 33.4882 17.6742 34.3128 16.7978 35.516C15.4125 35.5591 14.0323 35.7039 12.6683 35.949L14.3255 28.6072H17.4128C18.4659 30.3233 19.5171 31.8945 20.4401 33.2097H20.4382ZM8.49669 28.6072H12.8352L8.87177 46.1832H1.7819L8.49669 28.6072ZM33.9557 46.1833C34.8658 44.4521 37.5291 40.8826 44.0148 40.4206L46.2151 46.1833H33.9557Z" fill="#667085"/>
<path d="M24.7282 21.0441V19.914C28.0039 19.5661 30.592 16.978 30.9399 13.7023C31.5759 13.6603 32.7651 13.9563 32.7961 12.9752C32.7661 11.9941 31.575 12.2891 30.9399 12.2481C30.5912 8.97266 28.0036 6.38492 24.7282 6.03639C24.6872 5.40035 24.9832 4.21117 24.0011 4.1792C23.02 4.21024 23.315 5.40232 23.274 6.03639C19.9983 6.38427 17.4101 8.97238 17.0623 12.2481C16.4252 12.2901 15.236 11.9931 15.2051 12.9752C15.2351 13.9563 16.4282 13.6603 17.0623 13.7023C17.4094 16.9784 19.9979 19.5669 23.274 19.914V21.0441C23.2748 21.4456 23.601 21.7705 24.0027 21.7696C24.403 21.7687 24.7273 21.4444 24.7282 21.0441ZM18.5274 13.7022C19.1514 13.6732 20.2656 13.9232 20.2926 12.9751C20.2656 12.027 19.1505 12.275 18.5274 12.248C18.8594 9.77954 20.8014 7.83797 23.27 7.50649C23.2989 8.13053 23.0479 9.24366 23.997 9.27066C24.9462 9.24366 24.6971 8.12949 24.7241 7.50649C27.1923 7.83844 29.1337 9.77983 29.4656 12.248C28.8416 12.276 27.7294 12.027 27.7015 12.9751C27.7285 13.9232 28.8436 13.6752 29.4656 13.7022C29.1341 16.1707 27.1926 18.1127 24.7241 18.4447C24.6961 17.8207 24.9451 16.7065 23.997 16.6795C23.0489 16.7065 23.297 17.8216 23.27 18.4447C20.8026 18.1115 18.8626 16.1698 18.5314 13.7022H18.5274Z" fill="#667085"/>
</g>
<defs>
<clipPath id="clip0_2939_10631">
<rect width="48" height="48" fill="white"/>
</clipPath>
</defs>
</svg>
